<svg width="500" height="150" xmlns="http://www.w3.org/2000/svg" xmlns:svg="http://www.w3.org/2000/svg">
 <!-- Created with SVG-edit - https://github.com/SVG-Edit/svgedit-->

 <g class="layer">
  <title>Layer 1</title>
  <text fill="#000000" font-family="serif" font-size="0.016" id="svg_1" stroke="#000000" stroke-width="0" text-anchor="middle" x="102" xml:space="preserve" y="78.39999">0.000</text>
  <text fill="#000000" font-family="Monospace" font-size="22" font-weight="bold" id="svg_2" stroke="#000000" stroke-width="0" text-anchor="middle" x="336.57142" xml:space="preserve" y="79.65713">0000</text>
  <text fill="#000000" font-family="Monospace" font-size="22" font-weight="bold" id="svg_3" stroke="#000000" stroke-width="0" text-anchor="middle" transform="matrix(1, 0, 0, 1, 0, 0)" x="337.85714" xml:space="preserve" y="59.65714">1111</text>
  <text fill="#000000" font-family="Monospace" font-size="22" font-weight="bold" id="svg_4" stroke="#000000" stroke-width="0" text-anchor="middle" transform="matrix(1, 0, 0, 1, 0, 0)" x="418.68571" xml:space="preserve" y="99.02857">0001</text>
  <rect fill="#000000" fill-opacity="0" height="17.82857" id="svg_7" stroke="#ff0000" width="54.28572" x="323.54287" y="42.8"/>
  <rect fill="#000000" fill-opacity="0" height="17.54286" id="svg_8" stroke="#ff0000" width="55.48571" x="390.08571" y="82.94285"/>
  <rect fill="#000000" fill-opacity="0" height="17.54286" id="svg_9" stroke="#0000ff" transform="matrix(1, 0, 0, 1, 0, 0)" width="10.00001" x="379.48572" y="83.22857"/>
  <rect fill="#000000" fill-opacity="0" height="18.11429" id="svg_10" stroke="#0000ff" width="10.00001" x="312.65714" y="43.11429"/>
  <rect fill="#000000" fill-opacity="0" height="17.54286" id="svg_5" stroke="#0000ff" width="10.00001" x="351.2857" y="63.51429"/>
  <text fill="#000000" font-family="Monospace" font-size="22" font-weight="bold" id="svg_6" stroke="#000000" stroke-width="0" text-anchor="middle" x="372.00001" xml:space="preserve" y="59.4">1</text>
  <text fill="#000000" font-family="Monospace" font-size="22" font-weight="bold" id="svg_12" stroke="#000000" stroke-width="0" text-anchor="middle" transform="matrix(1, 0, 0, 1, 0, 0)" x="404.4" xml:space="preserve" y="79">000000</text>
  <text fill="#000000" font-family="Monospace" font-size="22" font-weight="bold" id="svg_13" stroke="#000000" stroke-width="0" text-anchor="middle" x="350.40002" xml:space="preserve" y="99">000000</text>
  <text fill="#000000" font-family="Monospace" font-size="16" font-weight="normal" id="svg_14" stroke="#000000" stroke-width="0" text-anchor="middle" transform="matrix(1, 0, 0, 1, 0, 0)" x="364" xml:space="preserve" y="99.4">.</text>
  <text fill="#000000" font-family="Monospace" font-size="16" font-weight="normal" id="svg_15" stroke="#000000" stroke-width="0" text-anchor="middle" x="364.39998" xml:space="preserve" y="79.8">.</text>
  <text fill="#000000" font-family="Monospace" font-size="16" font-weight="normal" id="svg_16" stroke="#000000" stroke-width="0" text-anchor="middle" transform="matrix(1, 0, 0, 1, 0, 0)" x="341.59998" xml:space="preserve" y="79">.</text>
  <text fill="#000000" font-family="Monospace" font-size="16" font-weight="normal" id="svg_17" stroke="#000000" stroke-width="0" text-anchor="middle" transform="matrix(1, 0, 0, 1, 0, 0)" x="364.80001" xml:space="preserve" y="59">.</text>
 </g>
</svg>