<svg width="2200" height="200" xmlns="http://www.w3.org/2000/svg" xmlns:svg="http://www.w3.org/2000/svg">
 <!-- Created with SVG-edit - https://github.com/SVG-Edit/svgedit-->

 <g class="layer">
  <title>Layer 1</title>
  <line fill="none" id="line" stroke="#000000" x1="10" x2="2010" y1="50" y2="50"/>
  <line fill="none" id="mark_exp" stroke="#000000" x1="2010" x2="2010" y1="25" y2="75"/>
  <text fill="#000000" font-family="serif" font-size="13" id="svg_1" stroke="#0000ff" stroke-width="0" text-anchor="middle" transform="matrix(1, 0, 0, 1, 0, 0)" x="2010" xml:space="preserve" y="19.21666">2 =Inf</text>
  <line fill="none" id="mark_exp" stroke="#000000" x1="1010" x2="1010" y1="25" y2="75"/>
  <text fill="#000000" font-family="serif" font-size="13" id="svg_1" stroke="#0000ff" stroke-width="0" text-anchor="middle" transform="matrix(1, 0, 0, 1, 0, 0)" x="1010" xml:space="preserve" y="19.21666">2</text>
  <line fill="none" id="mark_fract" stroke="#0000FF" x1="1010" x2="1010" y1="40" y2="60"/>
  <line fill="none" id="mark_fract" stroke="#0000FF" x1="1072.5" x2="1072.5" y1="40" y2="60"/>
  <line fill="none" id="mark_fract" stroke="#0000FF" x1="1135" x2="1135" y1="40" y2="60"/>
  <line fill="none" id="mark_fract" stroke="#0000FF" x1="1197.5" x2="1197.5" y1="40" y2="60"/>
  <line fill="none" id="mark_fract" stroke="#0000FF" x1="1260" x2="1260" y1="40" y2="60"/>
  <line fill="none" id="mark_fract" stroke="#0000FF" x1="1322.5" x2="1322.5" y1="40" y2="60"/>
  <line fill="none" id="mark_fract" stroke="#0000FF" x1="1385" x2="1385" y1="40" y2="60"/>
  <line fill="none" id="mark_fract" stroke="#0000FF" x1="1447.5" x2="1447.5" y1="40" y2="60"/>
  <line fill="none" id="mark_fract" stroke="#0000FF" x1="1510" x2="1510" y1="40" y2="60"/>
  <line fill="none" id="mark_fract" stroke="#0000FF" x1="1572.5" x2="1572.5" y1="40" y2="60"/>
  <line fill="none" id="mark_fract" stroke="#0000FF" x1="1635" x2="1635" y1="40" y2="60"/>
  <line fill="none" id="mark_fract" stroke="#0000FF" x1="1697.5" x2="1697.5" y1="40" y2="60"/>
  <line fill="none" id="mark_fract" stroke="#0000FF" x1="1760" x2="1760" y1="40" y2="60"/>
  <line fill="none" id="mark_fract" stroke="#0000FF" x1="1822.5" x2="1822.5" y1="40" y2="60"/>
  <line fill="none" id="mark_fract" stroke="#0000FF" x1="1885" x2="1885" y1="40" y2="60"/>
  <line fill="none" id="mark_fract" stroke="#0000FF" x1="1947.5" x2="1947.5" y1="40" y2="60"/>
  <line fill="none" id="mark_exp" stroke="#000000" x1="510" x2="510" y1="25" y2="75"/>
  <text fill="#000000" font-family="serif" font-size="13" id="svg_1" stroke="#0000ff" stroke-width="0" text-anchor="middle" transform="matrix(1, 0, 0, 1, 0, 0)" x="510" xml:space="preserve" y="19.21666">2</text>
  <line fill="none" id="mark_fract" stroke="#0000FF" x1="510" x2="510" y1="40" y2="60"/>
  <line fill="none" id="mark_fract" stroke="#0000FF" x1="541.25" x2="541.25" y1="40" y2="60"/>
  <line fill="none" id="mark_fract" stroke="#0000FF" x1="572.5" x2="572.5" y1="40" y2="60"/>
  <line fill="none" id="mark_fract" stroke="#0000FF" x1="603.75" x2="603.75" y1="40" y2="60"/>
  <line fill="none" id="mark_fract" stroke="#0000FF" x1="635" x2="635" y1="40" y2="60"/>
  <line fill="none" id="mark_fract" stroke="#0000FF" x1="666.25" x2="666.25" y1="40" y2="60"/>
  <line fill="none" id="mark_fract" stroke="#0000FF" x1="697.5" x2="697.5" y1="40" y2="60"/>
  <line fill="none" id="mark_fract" stroke="#0000FF" x1="728.75" x2="728.75" y1="40" y2="60"/>
  <line fill="none" id="mark_fract" stroke="#0000FF" x1="760" x2="760" y1="40" y2="60"/>
  <line fill="none" id="mark_fract" stroke="#0000FF" x1="791.25" x2="791.25" y1="40" y2="60"/>
  <line fill="none" id="mark_fract" stroke="#0000FF" x1="822.5" x2="822.5" y1="40" y2="60"/>
  <line fill="none" id="mark_fract" stroke="#0000FF" x1="853.75" x2="853.75" y1="40" y2="60"/>
  <line fill="none" id="mark_fract" stroke="#0000FF" x1="885" x2="885" y1="40" y2="60"/>
  <line fill="none" id="mark_fract" stroke="#0000FF" x1="916.25" x2="916.25" y1="40" y2="60"/>
  <line fill="none" id="mark_fract" stroke="#0000FF" x1="947.5" x2="947.5" y1="40" y2="60"/>
  <line fill="none" id="mark_fract" stroke="#0000FF" x1="978.75" x2="978.75" y1="40" y2="60"/>
  <line fill="none" id="mark_exp" stroke="#000000" x1="260" x2="260" y1="25" y2="75"/>
  <text fill="#000000" font-family="serif" font-size="13" id="svg_1" stroke="#0000ff" stroke-width="0" text-anchor="middle" transform="matrix(1, 0, 0, 1, 0, 0)" x="260.25" xml:space="preserve" y="19.21666">2</text>
  <line fill="none" id="mark_fract" stroke="#0000FF" x1="260" x2="260" y1="40" y2="60"/>
  <line fill="none" id="mark_fract" stroke="#0000FF" x1="275.625" x2="275.625" y1="40" y2="60"/>
  <line fill="none" id="mark_fract" stroke="#0000FF" x1="291.25" x2="291.25" y1="40" y2="60"/>
  <line fill="none" id="mark_fract" stroke="#0000FF" x1="306.875" x2="306.875" y1="40" y2="60"/>
  <line fill="none" id="mark_fract" stroke="#0000FF" x1="322.5" x2="322.5" y1="40" y2="60"/>
  <line fill="none" id="mark_fract" stroke="#0000FF" x1="338.125" x2="338.125" y1="40" y2="60"/>
  <line fill="none" id="mark_fract" stroke="#0000FF" x1="353.75" x2="353.75" y1="40" y2="60"/>
  <line fill="none" id="mark_fract" stroke="#0000FF" x1="369.375" x2="369.375" y1="40" y2="60"/>
  <line fill="none" id="mark_fract" stroke="#0000FF" x1="385" x2="385" y1="40" y2="60"/>
  <line fill="none" id="mark_fract" stroke="#0000FF" x1="400.625" x2="400.625" y1="40" y2="60"/>
  <line fill="none" id="mark_fract" stroke="#0000FF" x1="416.25" x2="416.25" y1="40" y2="60"/>
  <line fill="none" id="mark_fract" stroke="#0000FF" x1="431.875" x2="431.875" y1="40" y2="60"/>
  <line fill="none" id="mark_fract" stroke="#0000FF" x1="447.5" x2="447.5" y1="40" y2="60"/>
  <line fill="none" id="mark_fract" stroke="#0000FF" x1="463.125" x2="463.125" y1="40" y2="60"/>
  <line fill="none" id="mark_fract" stroke="#0000FF" x1="478.75" x2="478.75" y1="40" y2="60"/>
  <line fill="none" id="mark_fract" stroke="#0000FF" x1="494.375" x2="494.375" y1="40" y2="60"/>
  <line fill="none" id="mark_exp" stroke="#000000" x1="135" x2="135" y1="25" y2="75"/>
  <text fill="#000000" font-family="serif" font-size="13" id="svg_1" stroke="#0000ff" stroke-width="0" text-anchor="middle" transform="matrix(1, 0, 0, 1, 0, 0)" x="135" xml:space="preserve" y="19.21666">2</text>
  <line fill="none" id="mark_fract" stroke="#0000FF" x1="135" x2="135" y1="40" y2="60"/>
  <line fill="none" id="mark_fract" stroke="#0000FF" x1="142.8125" x2="142.8125" y1="40" y2="60"/>
  <line fill="none" id="mark_fract" stroke="#0000FF" x1="150.625" x2="150.625" y1="40" y2="60"/>
  <line fill="none" id="mark_fract" stroke="#0000FF" x1="158.4375" x2="158.4375" y1="40" y2="60"/>
  <line fill="none" id="mark_fract" stroke="#0000FF" x1="166.25" x2="166.25" y1="40" y2="60"/>
  <line fill="none" id="mark_fract" stroke="#0000FF" x1="174.0625" x2="174.0625" y1="40" y2="60"/>
  <line fill="none" id="mark_fract" stroke="#0000FF" x1="181.875" x2="181.875" y1="40" y2="60"/>
  <line fill="none" id="mark_fract" stroke="#0000FF" x1="189.6875" x2="189.6875" y1="40" y2="60"/>
  <line fill="none" id="mark_fract" stroke="#0000FF" x1="197.5" x2="197.5" y1="40" y2="60"/>
  <line fill="none" id="mark_fract" stroke="#0000FF" x1="205.3125" x2="205.3125" y1="40" y2="60"/>
  <line fill="none" id="mark_fract" stroke="#0000FF" x1="213.125" x2="213.125" y1="40" y2="60"/>
  <line fill="none" id="mark_fract" stroke="#0000FF" x1="220.9375" x2="220.9375" y1="40" y2="60"/>
  <line fill="none" id="mark_fract" stroke="#0000FF" x1="228.75" x2="228.75" y1="40" y2="60"/>
  <line fill="none" id="mark_fract" stroke="#0000FF" x1="236.5625" x2="236.5625" y1="40" y2="60"/>
  <line fill="none" id="mark_fract" stroke="#0000FF" x1="244.375" x2="244.375" y1="40" y2="60"/>
  <line fill="none" id="mark_fract" stroke="#0000FF" x1="252.1875" x2="252.1875" y1="40" y2="60"/>
  <line fill="none" id="mark_exp" stroke="#000000" x1="72.5" x2="72.5" y1="25" y2="75"/>
  <text fill="#000000" font-family="serif" font-size="13" id="svg_1" stroke="#0000ff" stroke-width="0" text-anchor="middle" transform="matrix(1, 0, 0, 1, 0, 0)" x="72.5" xml:space="preserve" y="19.21666">2</text>
  <line fill="none" id="mark_fract" stroke="#0000FF" x1="72.5" x2="72.5" y1="40" y2="60"/>
  <line fill="none" id="mark_fract" stroke="#0000FF" x1="76.40625" x2="76.40625" y1="40" y2="60"/>
  <line fill="none" id="mark_fract" stroke="#0000FF" x1="80.3125" x2="80.3125" y1="40" y2="60"/>
  <line fill="none" id="mark_fract" stroke="#0000FF" x1="84.21875" x2="84.21875" y1="40" y2="60"/>
  <line fill="none" id="mark_fract" stroke="#0000FF" x1="88.125" x2="88.125" y1="40" y2="60"/>
  <line fill="none" id="mark_fract" stroke="#0000FF" x1="92.03125" x2="92.03125" y1="40" y2="60"/>
  <line fill="none" id="mark_fract" stroke="#0000FF" x1="95.9375" x2="95.9375" y1="40" y2="60"/>
  <line fill="none" id="mark_fract" stroke="#0000FF" x1="99.84375" x2="99.84375" y1="40" y2="60"/>
  <line fill="none" id="mark_fract" stroke="#0000FF" x1="103.75" x2="103.75" y1="40" y2="60"/>
  <line fill="none" id="mark_fract" stroke="#0000FF" x1="107.65625" x2="107.65625" y1="40" y2="60"/>
  <line fill="none" id="mark_fract" stroke="#0000FF" x1="111.5625" x2="111.5625" y1="40" y2="60"/>
  <line fill="none" id="mark_fract" stroke="#0000FF" x1="115.46875" x2="115.46875" y1="40" y2="60"/>
  <line fill="none" id="mark_fract" stroke="#0000FF" x1="119.375" x2="119.375" y1="40" y2="60"/>
  <line fill="none" id="mark_fract" stroke="#0000FF" x1="123.28125" x2="123.28125" y1="40" y2="60"/>
  <line fill="none" id="mark_fract" stroke="#0000FF" x1="127.1875" x2="127.1875" y1="40" y2="60"/>
  <line fill="none" id="mark_fract" stroke="#0000FF" x1="131.09375" x2="131.09375" y1="40" y2="60"/>
  <line fill="none" id="mark_exp" stroke="#000000" x1="41.25" x2="41.25" y1="25" y2="75"/>
  <text fill="#000000" font-family="serif" font-size="13" id="svg_1" stroke="#0000ff" stroke-width="0" text-anchor="middle" transform="matrix(1, 0, 0, 1, 0, 0)" x="41.25" xml:space="preserve" y="19.21666">2</text>
  <line fill="none" id="mark_fract" stroke="#0000FF" x1="41.25" x2="41.25" y1="40" y2="60"/>
  <line fill="none" id="mark_fract" stroke="#0000FF" x1="43.20313" x2="43.20313" y1="40" y2="60"/>
  <line fill="none" id="mark_fract" stroke="#0000FF" x1="45.15625" x2="45.15625" y1="40" y2="60"/>
  <line fill="none" id="mark_fract" stroke="#0000FF" x1="47.10938" x2="47.10938" y1="40" y2="60"/>
  <line fill="none" id="mark_fract" stroke="#0000FF" x1="49.0625" x2="49.0625" y1="40" y2="60"/>
  <line fill="none" id="mark_fract" stroke="#0000FF" x1="51.01563" x2="51.01563" y1="40" y2="60"/>
  <line fill="none" id="mark_fract" stroke="#0000FF" x1="52.96875" x2="52.96875" y1="40" y2="60"/>
  <line fill="none" id="mark_fract" stroke="#0000FF" x1="54.92188" x2="54.92188" y1="40" y2="60"/>
  <line fill="none" id="mark_fract" stroke="#0000FF" x1="56.875" x2="56.875" y1="40" y2="60"/>
  <line fill="none" id="mark_fract" stroke="#0000FF" x1="58.82813" x2="58.82813" y1="40" y2="60"/>
  <line fill="none" id="mark_fract" stroke="#0000FF" x1="60.78125" x2="60.78125" y1="40" y2="60"/>
  <line fill="none" id="mark_fract" stroke="#0000FF" x1="62.73438" x2="62.73438" y1="40" y2="60"/>
  <line fill="none" id="mark_fract" stroke="#0000FF" x1="64.6875" x2="64.6875" y1="40" y2="60"/>
  <line fill="none" id="mark_fract" stroke="#0000FF" x1="66.64063" x2="66.64063" y1="40" y2="60"/>
  <line fill="none" id="mark_fract" stroke="#0000FF" x1="68.59375" x2="68.59375" y1="40" y2="60"/>
  <line fill="none" id="mark_fract" stroke="#0000FF" x1="70.54688" x2="70.54688" y1="40" y2="60"/>
  <line fill="none" id="mark_exp" stroke="#000000" x1="10" x2="10" y1="25" y2="75"/>
  <text fill="#000000" font-family="serif" font-size="13" id="svg_1" stroke="#0000ff" stroke-width="0" text-anchor="middle" x="10" xml:space="preserve" y="19.21666">0</text>
  <line fill="none" id="mark_fract" stroke="#0000FF" x1="10" x2="10" y1="40" y2="60"/>
  <line fill="none" id="mark_fract" stroke="#0000FF" x1="11.95313" x2="11.95313" y1="40" y2="60"/>
  <line fill="none" id="mark_fract" stroke="#0000FF" x1="13.90625" x2="13.90625" y1="40" y2="60"/>
  <line fill="none" id="mark_fract" stroke="#0000FF" x1="15.85938" x2="15.85938" y1="40" y2="60"/>
  <line fill="none" id="mark_fract" stroke="#0000FF" x1="17.8125" x2="17.8125" y1="40" y2="60"/>
  <line fill="none" id="mark_fract" stroke="#0000FF" x1="19.76563" x2="19.76563" y1="40" y2="60"/>
  <line fill="none" id="mark_fract" stroke="#0000FF" x1="21.71875" x2="21.71875" y1="40" y2="60"/>
  <line fill="none" id="mark_fract" stroke="#0000FF" x1="23.67188" x2="23.67188" y1="40" y2="60"/>
  <line fill="none" id="mark_fract" stroke="#0000FF" x1="25.625" x2="25.625" y1="40" y2="60"/>
  <line fill="none" id="mark_fract" stroke="#0000FF" x1="27.57813" x2="27.57813" y1="40" y2="60"/>
  <line fill="none" id="mark_fract" stroke="#0000FF" x1="29.53125" x2="29.53125" y1="40" y2="60"/>
  <line fill="none" id="mark_fract" stroke="#0000FF" x1="31.48438" x2="31.48438" y1="40" y2="60"/>
  <line fill="none" id="mark_fract" stroke="#0000FF" x1="33.4375" x2="33.4375" y1="40" y2="60"/>
  <line fill="none" id="mark_fract" stroke="#0000FF" x1="35.39063" x2="35.39063" y1="40" y2="60"/>
  <line fill="none" id="mark_fract" stroke="#0000FF" x1="37.34375" x2="37.34375" y1="40" y2="60"/>
  <line fill="none" id="mark_fract" stroke="#0000FF" x1="39.29688" x2="39.29688" y1="40" y2="60"/>
  <text fill="#ff0000" font-family="serif" font-size="16" id="svg_2" stroke="#0000ff" stroke-width="0" text-anchor="middle" transform="rotate(-89.3489, 23.4, 152.625)" x="23.4" xml:space="preserve" y="158">Sub Normal</text>
  <text fill="#000000" font-family="serif" font-size="17" font-weight="bold" id="svg_3" stroke="#000000" stroke-width="0" text-anchor="middle" transform="matrix(1, 0, 0, 1, 0, 0)" x="1015" xml:space="preserve" y="175.39999">b1.0000 × 2</text>
  <text fill="#000000" font-family="serif" font-size="17" font-weight="bold" id="svg_4" stroke="#000000" stroke-width="0" text-anchor="middle" transform="matrix(1, 0, 0, 1, 0, 0)" x="937" xml:space="preserve" y="125.49999">b1.1111 × 2</text>
  <text fill="#000000" font-family="serif" font-size="17" font-weight="bold" id="svg_5" stroke="#000000" stroke-width="0" text-anchor="middle" transform="matrix(1, 0, 0, 1, 0, 0)" x="1085" xml:space="preserve" y="126.5">b1.0001 × 2</text>
  <line fill="none" id="svg_6" stroke="#000000" x1="948" x2="973" y1="98.39999" y2="63.39999"/>
  <line fill="none" id="svg_8" stroke="#000000" x1="1069" x2="1073" y1="101.39999" y2="62.39999"/>
  <line fill="none" id="svg_10" stroke="#000000" x1="1007" x2="1011" y1="157.39999" y2="80.39999"/>
  <text fill="#ff0000" font-family="serif" font-size="5" id="svg_11" stroke="#000000" stroke-width="0" text-anchor="middle" transform="matrix(1, 0, 0, 1, 0, 0)" x="35.65714" xml:space="preserve" y="99.4">b0.1111×2</text>
  <text fill="#000000" font-family="serif" font-size="5" id="svg_12" stroke="#000000" stroke-width="0" text-anchor="middle" transform="matrix(1, 0, 0, 1, 0, 0)" x="53.71428" xml:space="preserve" y="92.42856">b1.0000×2</text>
  <text fill="#000000" font-family="serif" font-size="5" id="svg_13" stroke="#000000" stroke-width="0" text-anchor="middle" x="63.48571" xml:space="preserve" y="84.25714">b1.0001×2</text>
  <text fill="#ff0000" font-family="serif" font-size="5" id="svg_14" stroke="#000000" stroke-width="0" text-anchor="middle" transform="matrix(1, 0, 0, 1, 0, 0) rotate(-0.362472, 18.0571, 90.3619)" x="18.05713" xml:space="preserve" y="92.02856">b0.0001×2</text>
  <line fill="none" id="svg_15" stroke="#000000" x1="15.20001" x2="12.40001" y1="82" y2="61.6"/>
  <line fill="none" id="svg_19" stroke="#000000" x1="34.28572" x2="39.14287" y1="94.57143" y2="60.85715"/>
  <line fill="none" id="svg_20" stroke="#000000" x1="48.57144" x2="42.00001" y1="86.85715" y2="75.42858"/>
  <line fill="none" id="svg_21" stroke="#000000" x1="59.7143" x2="43.14287" y1="78.85715" y2="60.57143"/>
  <text fill="#ff0000" font-family="serif" font-size="32" id="svg_7" stroke="#000000" stroke-width="0" text-anchor="middle" transform="rotate(-90, 20.4, 107.143)" x="20.4" xml:space="preserve" y="117.84">{</text>
  <text fill="#000000" font-family="serif" font-size="17" font-weight="bold" id="svg_9" stroke="#000000" stroke-width="0" text-anchor="middle" transform="matrix(1, 0, 0, 1, 0, 0)" x="483.99999" xml:space="preserve" y="175.5">b1.0000 × 2</text>
  <line fill="none" id="svg_16" stroke="#000000" x1="506" x2="510" y1="156.5" y2="79.5"/>
  <text fill="#000000" font-family="serif" font-size="17" font-weight="bold" id="svg_17" stroke="#000000" stroke-width="0" text-anchor="middle" transform="matrix(1, 0, 0, 1, 0, 0)" x="576.00003" xml:space="preserve" y="147.49999">b1.0001 × 2</text>
  <line fill="none" id="svg_18" stroke="#000000" x1="541.99999" x2="549.99999" y1="65.39999" y2="125.4"/>
  <text fill="#000000" font-family="serif" font-size="17" font-weight="bold" id="svg_22" stroke="#000000" stroke-width="0" text-anchor="middle" transform="matrix(1, 0, 0, 1, 0, 0)" x="619.00003" xml:space="preserve" y="117.50001">b1.0010 × 2</text>
  <line fill="none" id="svg_23" stroke="#000000" x1="575" x2="594" y1="65.39999" y2="101.39999"/>
  <text fill="#000000" font-family="serif" font-size="13" id="svg_24" stroke="#0000ff" stroke-width="0" text-anchor="middle" transform="matrix(1, 0, 0, 1, 0, 0)" x="2070" xml:space="preserve" y="53.5">Nan</text>
  <path d="m2054.52225,51.62943l24.02313,-61.8513l24.02313,61.8513l-12.01157,0l0,62.14891l-24.02313,0l0,-62.14891l-12.01157,0l0.00001,0z" fill="#000000" fill-opacity="0" id="svg_25" stroke="#0000ff" transform="rotate(90, 2078.55, 51.7773)"/>
  <line fill="none" id="svg_26" stroke="#000000" x1="1943.66667" x2="1947" y1="139.5" y2="62.5"/>
  <text fill="#000000" font-family="serif" font-size="17" font-weight="bold" id="svg_27" stroke="#000000" stroke-width="0" text-anchor="middle" x="1954.00003" xml:space="preserve" y="168.33332">b1.1111 × 2</text>
  <text fill="#000000" font-family="serif" font-size="7" id="svg_28" stroke="#0000ff" stroke-width="0" text-anchor="middle" x="47" xml:space="preserve" y="11.75">-2</text>
  <text fill="#000000" font-family="serif" font-size="7" id="svg_29" stroke="#0000ff" stroke-width="0" text-anchor="middle" x="79.75" xml:space="preserve" y="11.625">-1</text>
  <text fill="#000000" font-family="serif" font-size="7" id="svg_30" stroke="#0000ff" stroke-width="0" text-anchor="middle" x="140" xml:space="preserve" y="10.625">0</text>
  <text fill="#000000" font-family="serif" font-size="7" id="svg_31" stroke="#0000ff" stroke-width="0" text-anchor="middle" x="265" xml:space="preserve" y="10.875">1</text>
  <text fill="#000000" font-family="serif" font-size="7" id="svg_32" stroke="#0000ff" stroke-width="0" text-anchor="middle" x="515.25" xml:space="preserve" y="11.125">2</text>
  <text fill="#000000" font-family="serif" font-size="7" id="svg_33" stroke="#0000ff" stroke-width="0" text-anchor="middle" x="1016" xml:space="preserve" y="11.375">3</text>
  <text fill="#000000" font-family="serif" font-size="7" id="svg_34" stroke="#0000ff" stroke-width="0" text-anchor="middle" x="2002" xml:space="preserve" y="10.875">4</text>
  <text fill="#000000" font-family="serif" font-size="9" font-weight="bold" id="svg_35" stroke="#0000ff" stroke-width="0" text-anchor="middle" x="1996.5" xml:space="preserve" y="157.25">3</text>
  <text fill="#000000" font-family="serif" font-size="9" font-weight="bold" id="svg_36" stroke="#0000ff" stroke-width="0" text-anchor="middle" x="1128.99999" xml:space="preserve" y="116.4">3</text>
  <text fill="#000000" font-family="serif" font-size="9" font-weight="bold" id="svg_37" stroke="#0000ff" stroke-width="0" text-anchor="middle" x="1058.39997" xml:space="preserve" y="165">3</text>
  <text fill="#000000" font-family="serif" font-size="9" font-weight="bold" id="svg_38" stroke="#0000ff" stroke-width="0" text-anchor="middle" x="980.79994" xml:space="preserve" y="113">2</text>
  <text fill="#000000" font-family="serif" font-size="9" font-weight="bold" id="svg_39" stroke="#0000ff" stroke-width="0" text-anchor="middle" x="664.40002" xml:space="preserve" y="107.4">2</text>
  <text fill="#000000" font-family="serif" font-size="9" font-weight="bold" id="svg_40" stroke="#0000ff" stroke-width="0" text-anchor="middle" x="619.99998" xml:space="preserve" y="137.4">2</text>
  <text fill="#000000" font-family="serif" font-size="9" font-weight="bold" id="svg_41" stroke="#0000ff" stroke-width="0" text-anchor="middle" x="526.39999" xml:space="preserve" y="164.20001">2</text>
  <text fill="#000000" font-family="serif" font-size="3" id="svg_42" stroke="#000000" stroke-width="0" text-anchor="middle" x="75.75" xml:space="preserve" y="80.75">-2</text>
  <text fill="#000000" font-family="serif" font-size="3" id="svg_43" stroke="#000000" stroke-width="0" text-anchor="middle" x="65.5" xml:space="preserve" y="89">-2</text>
  <text fill="#ff0000" font-family="serif" font-size="3" id="svg_44" stroke="#ff0000" stroke-width="0" text-anchor="middle" x="47.66667" xml:space="preserve" y="96.33333">-2</text>
  <text fill="#ff0000" font-family="serif" font-size="3" id="svg_45" stroke="#ff0000" stroke-width="0" text-anchor="middle" x="29.66667" xml:space="preserve" y="89">-2</text>
 </g>
</svg>